<svg width="480" height="361" viewBox="0 0 480 361" fill="none" xmlns="http://www.w3.org/2000/svg">
<g opacity="0.1">
<mask id="mask0_1_470" style="mask-type:alpha" maskUnits="userSpaceOnUse" x="0" y="0" width="480" height="361">
<rect x="479.5" y="0.5" width="360" height="479" transform="rotate(90 479.5 0.5)" fill="url(#paint0_linear_1_470)" stroke="#6246E5"/>
</mask>
<g mask="url(#mask0_1_470)">
<path d="M146.185 466.189C76.8525 466.189 20.6459 409.903 20.6459 340.471C20.6459 271.038 76.8525 214.753 146.185 214.753C215.518 214.753 271.725 271.038 271.725 340.471C271.725 409.903 215.518 466.189 146.185 466.189Z" stroke="#6246E5"/>
<path d="M159.453 471.171C81.8766 471.171 18.9876 408.194 18.9876 330.506C18.9876 252.818 81.8766 189.841 159.453 189.841C237.029 189.841 299.918 252.818 299.918 330.506C299.918 408.194 237.029 471.171 159.453 471.171Z" stroke="#6246E5"/>
<path d="M170.232 476.153C85.3289 476.153 16.4999 407.228 16.4999 322.202C16.4999 237.177 85.3289 168.252 170.232 168.252C255.136 168.252 323.965 237.177 323.965 322.202C323.965 407.228 255.136 476.153 170.232 476.153Z" stroke="#6246E5"/>
<path d="M185.988 479.475C94.6728 479.475 20.6464 405.345 20.6464 313.899C20.6464 222.453 94.6729 148.323 185.988 148.323C277.302 148.323 351.329 222.453 351.329 313.899C351.329 405.345 277.302 479.475 185.988 479.475Z" stroke="#6246E5"/>
<path d="M201.328 482.796C103.83 482.796 24.7921 403.647 24.7921 306.01C24.7921 208.373 103.83 129.224 201.328 129.224C298.825 129.224 377.863 208.373 377.863 306.01C377.863 403.647 298.825 482.796 201.328 482.796Z" stroke="#6246E5"/>
<path d="M218.741 486.948C111.627 486.948 24.7922 399.992 24.7922 292.724C24.7922 185.456 111.627 98.5 218.741 98.5C325.856 98.5 412.69 185.456 412.69 292.724C412.69 399.992 325.855 486.948 218.741 486.948Z" stroke="#6246E5"/>
</g>
</g>
<defs>
<linearGradient id="paint0_linear_1_470" x1="736.035" y1="13.4669" x2="487.705" y2="484.066" gradientUnits="userSpaceOnUse">
<stop stop-color="#747DEF"/>
<stop offset="1" stop-color="#5E3BE1"/>
</linearGradient>
</defs>
</svg>
