<svg width="480" height="361" fill="none" xmlns="http://www.w3.org/2000/svg"><g opacity=".1"><mask id="b" style="mask-type:alpha" maskUnits="userSpaceOnUse" x="0" y="0" width="480" height="361"><path transform="rotate(90 479.5 .5)" fill="url(#a)" stroke="#6246E5" d="M479.5.5h360v479h-360z"/></mask><g mask="url(#b)" stroke="#6246E5"><path d="M146.185 466.189c-69.332 0-125.54-56.286-125.54-125.718 0-69.433 56.208-125.718 125.54-125.718 69.333 0 125.54 56.285 125.54 125.718 0 69.432-56.207 125.718-125.54 125.718Z"/><path d="M159.453 471.171c-77.576 0-140.465-62.977-140.465-140.665 0-77.688 62.889-140.665 140.465-140.665s140.465 62.977 140.465 140.665c0 77.688-62.889 140.665-140.465 140.665Z"/><path d="M170.232 476.153c-84.903 0-153.732-68.925-153.732-153.951 0-85.025 68.829-153.95 153.732-153.95 84.904 0 153.733 68.925 153.733 153.95 0 85.026-68.829 153.951-153.733 153.951Z"/><path d="M185.988 479.475c-91.315 0-165.342-74.13-165.342-165.576s74.027-165.576 165.342-165.576c91.314 0 165.341 74.13 165.341 165.576s-74.027 165.576-165.341 165.576Z"/><path d="M201.328 482.796c-97.498 0-176.536-79.149-176.536-176.786s79.038-176.786 176.536-176.786c97.497 0 176.535 79.149 176.535 176.786s-79.038 176.786-176.535 176.786Z"/><path d="M218.741 486.948c-107.114 0-193.949-86.956-193.949-194.224 0-107.268 86.835-194.224 193.949-194.224 107.115 0 193.949 86.956 193.949 194.224 0 107.268-86.835 194.224-193.949 194.224Z"/></g></g><defs><linearGradient id="a" x1="736.035" y1="13.467" x2="487.705" y2="484.066" gradientUnits="userSpaceOnUse"><stop stop-color="#747DEF"/><stop offset="1" stop-color="#5E3BE1"/></linearGradient></defs></svg>